<svg xmlns="http://www.w3.org/2000/svg" class="vdfig" viewBox="0 0 680 292" role="img" aria-label="포아송 분포: 평균 λ가 1, 4, 10일 때 개수별 확률 막대">
<style>
.vdfig{font-family:system-ui,-apple-system,'Apple SD Gothic Neo','Malgun Gothic','Noto Sans KR',sans-serif}
.vdfig .s-fg{stroke:#1c2330}.vdfig .s-mu{stroke:#8a93a3}.vdfig .s-ac{stroke:#2563eb}.vdfig .s-bd{stroke:#c2410c}.vdfig .s-ok{stroke:#15803d}
.vdfig .f-fg{fill:#1c2330}.vdfig .f-mu{fill:#5a6475}.vdfig .f-ac{fill:#2563eb}.vdfig .f-acs{fill:#e6eefe}.vdfig .f-bd{fill:#c2410c}
.vdfig .f-bds{fill:#fdeee6}.vdfig .f-ok{fill:#15803d}.vdfig .f-sf{fill:#f0f2f5}.vdfig .f-bg{fill:#ffffff}
@media (prefers-color-scheme:dark){
.vdfig .s-fg{stroke:#e6e9ef}.vdfig .s-mu{stroke:#737c8c}.vdfig .s-ac{stroke:#6d9bff}.vdfig .s-bd{stroke:#fb8b5b}.vdfig .s-ok{stroke:#4ade80}
.vdfig .f-fg{fill:#e6e9ef}.vdfig .f-mu{fill:#a7afbd}.vdfig .f-ac{fill:#6d9bff}.vdfig .f-acs{fill:#1f2b45}.vdfig .f-bd{fill:#fb8b5b}
.vdfig .f-bds{fill:#3a2218}.vdfig .f-ok{fill:#4ade80}.vdfig .f-sf{fill:#222733}.vdfig .f-bg{fill:#1a1e26}}
</style>
<line x1="130.0" y1="96.0" x2="660.0" y2="96.0" class="s-mu" stroke-width="1"/>
<rect x="133.5" y="36.0" width="18.2" height="60.0" rx="0" class="f-ac" stroke-width="0"/>
<rect x="158.8" y="36.0" width="18.2" height="60.0" rx="0" class="f-ac" stroke-width="0"/>
<rect x="184.0" y="66.0" width="18.2" height="30.0" rx="0" class="f-ac" stroke-width="0"/>
<rect x="209.2" y="86.0" width="18.2" height="10.0" rx="0" class="f-ac" stroke-width="0"/>
<rect x="234.5" y="93.5" width="18.2" height="2.5" rx="0" class="f-ac" stroke-width="0"/>
<rect x="259.7" y="95.5" width="18.2" height="0.5" rx="0" class="f-ac" stroke-width="0"/>
<line x1="167.9" y1="32.0" x2="167.9" y2="96.0" class="s-bd" stroke-width="1.4" stroke-dasharray="4 3"/>
<text x="12.0" y="68.0" class="f-fg" font-size="14" text-anchor="start" font-weight="600">λ = 1</text>
<text x="12.0" y="86.0" class="f-mu" font-size="12" text-anchor="start">평균·분산 1</text>
<line x1="130.0" y1="174.0" x2="660.0" y2="174.0" class="s-mu" stroke-width="1"/>
<rect x="133.5" y="171.0" width="18.2" height="3.0" rx="0" class="f-ac" stroke-width="0"/>
<rect x="158.8" y="162.1" width="18.2" height="11.9" rx="0" class="f-ac" stroke-width="0"/>
<rect x="184.0" y="150.1" width="18.2" height="23.9" rx="0" class="f-ac" stroke-width="0"/>
<rect x="209.2" y="142.1" width="18.2" height="31.9" rx="0" class="f-ac" stroke-width="0"/>
<rect x="234.5" y="142.1" width="18.2" height="31.9" rx="0" class="f-ac" stroke-width="0"/>
<rect x="259.7" y="148.5" width="18.2" height="25.5" rx="0" class="f-ac" stroke-width="0"/>
<rect x="285.0" y="157.0" width="18.2" height="17.0" rx="0" class="f-ac" stroke-width="0"/>
<rect x="310.2" y="164.3" width="18.2" height="9.7" rx="0" class="f-ac" stroke-width="0"/>
<rect x="335.4" y="169.1" width="18.2" height="4.9" rx="0" class="f-ac" stroke-width="0"/>
<rect x="360.7" y="171.8" width="18.2" height="2.2" rx="0" class="f-ac" stroke-width="0"/>
<rect x="385.9" y="173.1" width="18.2" height="0.9" rx="0" class="f-ac" stroke-width="0"/>
<line x1="243.6" y1="110.0" x2="243.6" y2="174.0" class="s-bd" stroke-width="1.4" stroke-dasharray="4 3"/>
<text x="12.0" y="146.0" class="f-fg" font-size="14" text-anchor="start" font-weight="600">λ = 4</text>
<text x="12.0" y="164.0" class="f-mu" font-size="12" text-anchor="start">평균·분산 4</text>
<line x1="130.0" y1="252.0" x2="660.0" y2="252.0" class="s-mu" stroke-width="1"/>
<rect x="209.2" y="250.8" width="18.2" height="1.2" rx="0" class="f-ac" stroke-width="0"/>
<rect x="234.5" y="248.9" width="18.2" height="3.1" rx="0" class="f-ac" stroke-width="0"/>
<rect x="259.7" y="245.8" width="18.2" height="6.2" rx="0" class="f-ac" stroke-width="0"/>
<rect x="285.0" y="241.7" width="18.2" height="10.3" rx="0" class="f-ac" stroke-width="0"/>
<rect x="310.2" y="237.3" width="18.2" height="14.7" rx="0" class="f-ac" stroke-width="0"/>
<rect x="335.4" y="233.6" width="18.2" height="18.4" rx="0" class="f-ac" stroke-width="0"/>
<rect x="360.7" y="231.6" width="18.2" height="20.4" rx="0" class="f-ac" stroke-width="0"/>
<rect x="385.9" y="231.6" width="18.2" height="20.4" rx="0" class="f-ac" stroke-width="0"/>
<rect x="411.2" y="233.4" width="18.2" height="18.6" rx="0" class="f-ac" stroke-width="0"/>
<rect x="436.4" y="236.5" width="18.2" height="15.5" rx="0" class="f-ac" stroke-width="0"/>
<rect x="461.6" y="240.1" width="18.2" height="11.9" rx="0" class="f-ac" stroke-width="0"/>
<rect x="486.9" y="243.5" width="18.2" height="8.5" rx="0" class="f-ac" stroke-width="0"/>
<rect x="512.1" y="246.3" width="18.2" height="5.7" rx="0" class="f-ac" stroke-width="0"/>
<rect x="537.3" y="248.5" width="18.2" height="3.5" rx="0" class="f-ac" stroke-width="0"/>
<rect x="562.6" y="249.9" width="18.2" height="2.1" rx="0" class="f-ac" stroke-width="0"/>
<rect x="587.8" y="250.8" width="18.2" height="1.2" rx="0" class="f-ac" stroke-width="0"/>
<rect x="613.1" y="251.4" width="18.2" height="0.6" rx="0" class="f-ac" stroke-width="0"/>
<line x1="395.0" y1="188.0" x2="395.0" y2="252.0" class="s-bd" stroke-width="1.4" stroke-dasharray="4 3"/>
<text x="12.0" y="224.0" class="f-fg" font-size="14" text-anchor="start" font-weight="600">λ = 10</text>
<text x="12.0" y="242.0" class="f-mu" font-size="12" text-anchor="start">평균·분산 10</text>
<line x1="142.6" y1="252.0" x2="142.6" y2="257.0" class="s-mu" stroke-width="1"/>
<text x="142.6" y="272.0" class="f-mu" font-size="12" text-anchor="middle">0</text>
<line x1="268.8" y1="252.0" x2="268.8" y2="257.0" class="s-mu" stroke-width="1"/>
<text x="268.8" y="272.0" class="f-mu" font-size="12" text-anchor="middle">5</text>
<line x1="395.0" y1="252.0" x2="395.0" y2="257.0" class="s-mu" stroke-width="1"/>
<text x="395.0" y="272.0" class="f-mu" font-size="12" text-anchor="middle">10</text>
<line x1="521.2" y1="252.0" x2="521.2" y2="257.0" class="s-mu" stroke-width="1"/>
<text x="521.2" y="272.0" class="f-mu" font-size="12" text-anchor="middle">15</text>
<line x1="647.4" y1="252.0" x2="647.4" y2="257.0" class="s-mu" stroke-width="1"/>
<text x="647.4" y="272.0" class="f-mu" font-size="12" text-anchor="middle">20</text>
<text x="660.0" y="288.0" class="f-mu" font-size="12" text-anchor="end">타일당 개수</text>
</svg>
