<svg xmlns="http://www.w3.org/2000/svg" class="vdfig" viewBox="0 0 680 250" role="img" aria-label="양, 무작위, 음의 공간 자기상관을 보이는 6×6 격자와 각각의 모란 지수">
<style>
.vdfig{font-family:system-ui,-apple-system,'Apple SD Gothic Neo','Malgun Gothic','Noto Sans KR',sans-serif}
.vdfig .s-fg{stroke:#1c2330}.vdfig .s-mu{stroke:#8a93a3}.vdfig .s-ac{stroke:#2563eb}.vdfig .s-bd{stroke:#c2410c}.vdfig .s-ok{stroke:#15803d}
.vdfig .f-fg{fill:#1c2330}.vdfig .f-mu{fill:#5a6475}.vdfig .f-ac{fill:#2563eb}.vdfig .f-acs{fill:#e6eefe}.vdfig .f-bd{fill:#c2410c}
.vdfig .f-bds{fill:#fdeee6}.vdfig .f-ok{fill:#15803d}.vdfig .f-sf{fill:#f0f2f5}.vdfig .f-bg{fill:#ffffff}
@media (prefers-color-scheme:dark){
.vdfig .s-fg{stroke:#e6e9ef}.vdfig .s-mu{stroke:#737c8c}.vdfig .s-ac{stroke:#6d9bff}.vdfig .s-bd{stroke:#fb8b5b}.vdfig .s-ok{stroke:#4ade80}
.vdfig .f-fg{fill:#e6e9ef}.vdfig .f-mu{fill:#a7afbd}.vdfig .f-ac{fill:#6d9bff}.vdfig .f-acs{fill:#1f2b45}.vdfig .f-bd{fill:#fb8b5b}
.vdfig .f-bds{fill:#3a2218}.vdfig .f-ok{fill:#4ade80}.vdfig .f-sf{fill:#222733}.vdfig .f-bg{fill:#1a1e26}}
</style>
<rect x="30.0" y="36.0" width="30.0" height="30.0" rx="0" class="s-mu f-ac" stroke-width="1"/>
<rect x="60.0" y="36.0" width="30.0" height="30.0" rx="0" class="s-mu f-ac" stroke-width="1"/>
<rect x="90.0" y="36.0" width="30.0" height="30.0" rx="0" class="s-mu f-ac" stroke-width="1"/>
<rect x="120.0" y="36.0" width="30.0" height="30.0" rx="0" class="s-mu f-sf" stroke-width="1"/>
<rect x="150.0" y="36.0" width="30.0" height="30.0" rx="0" class="s-mu f-sf" stroke-width="1"/>
<rect x="180.0" y="36.0" width="30.0" height="30.0" rx="0" class="s-mu f-sf" stroke-width="1"/>
<rect x="30.0" y="66.0" width="30.0" height="30.0" rx="0" class="s-mu f-ac" stroke-width="1"/>
<rect x="60.0" y="66.0" width="30.0" height="30.0" rx="0" class="s-mu f-ac" stroke-width="1"/>
<rect x="90.0" y="66.0" width="30.0" height="30.0" rx="0" class="s-mu f-ac" stroke-width="1"/>
<rect x="120.0" y="66.0" width="30.0" height="30.0" rx="0" class="s-mu f-ac" stroke-width="1"/>
<rect x="150.0" y="66.0" width="30.0" height="30.0" rx="0" class="s-mu f-sf" stroke-width="1"/>
<rect x="180.0" y="66.0" width="30.0" height="30.0" rx="0" class="s-mu f-sf" stroke-width="1"/>
<rect x="30.0" y="96.0" width="30.0" height="30.0" rx="0" class="s-mu f-ac" stroke-width="1"/>
<rect x="60.0" y="96.0" width="30.0" height="30.0" rx="0" class="s-mu f-ac" stroke-width="1"/>
<rect x="90.0" y="96.0" width="30.0" height="30.0" rx="0" class="s-mu f-ac" stroke-width="1"/>
<rect x="120.0" y="96.0" width="30.0" height="30.0" rx="0" class="s-mu f-sf" stroke-width="1"/>
<rect x="150.0" y="96.0" width="30.0" height="30.0" rx="0" class="s-mu f-sf" stroke-width="1"/>
<rect x="180.0" y="96.0" width="30.0" height="30.0" rx="0" class="s-mu f-sf" stroke-width="1"/>
<rect x="30.0" y="126.0" width="30.0" height="30.0" rx="0" class="s-mu f-ac" stroke-width="1"/>
<rect x="60.0" y="126.0" width="30.0" height="30.0" rx="0" class="s-mu f-ac" stroke-width="1"/>
<rect x="90.0" y="126.0" width="30.0" height="30.0" rx="0" class="s-mu f-sf" stroke-width="1"/>
<rect x="120.0" y="126.0" width="30.0" height="30.0" rx="0" class="s-mu f-sf" stroke-width="1"/>
<rect x="150.0" y="126.0" width="30.0" height="30.0" rx="0" class="s-mu f-sf" stroke-width="1"/>
<rect x="180.0" y="126.0" width="30.0" height="30.0" rx="0" class="s-mu f-ac" stroke-width="1"/>
<rect x="30.0" y="156.0" width="30.0" height="30.0" rx="0" class="s-mu f-sf" stroke-width="1"/>
<rect x="60.0" y="156.0" width="30.0" height="30.0" rx="0" class="s-mu f-sf" stroke-width="1"/>
<rect x="90.0" y="156.0" width="30.0" height="30.0" rx="0" class="s-mu f-sf" stroke-width="1"/>
<rect x="120.0" y="156.0" width="30.0" height="30.0" rx="0" class="s-mu f-sf" stroke-width="1"/>
<rect x="150.0" y="156.0" width="30.0" height="30.0" rx="0" class="s-mu f-ac" stroke-width="1"/>
<rect x="180.0" y="156.0" width="30.0" height="30.0" rx="0" class="s-mu f-ac" stroke-width="1"/>
<rect x="30.0" y="186.0" width="30.0" height="30.0" rx="0" class="s-mu f-sf" stroke-width="1"/>
<rect x="60.0" y="186.0" width="30.0" height="30.0" rx="0" class="s-mu f-sf" stroke-width="1"/>
<rect x="90.0" y="186.0" width="30.0" height="30.0" rx="0" class="s-mu f-sf" stroke-width="1"/>
<rect x="120.0" y="186.0" width="30.0" height="30.0" rx="0" class="s-mu f-ac" stroke-width="1"/>
<rect x="150.0" y="186.0" width="30.0" height="30.0" rx="0" class="s-mu f-ac" stroke-width="1"/>
<rect x="180.0" y="186.0" width="30.0" height="30.0" rx="0" class="s-mu f-ac" stroke-width="1"/>
<text x="120.0" y="24.0" class="f-fg" font-size="13" text-anchor="middle" font-weight="600">양의 자기상관</text>
<text x="120.0" y="242.0" class="f-bd" font-size="14" text-anchor="middle" font-weight="600">I = 0.50</text>
<rect x="250.0" y="36.0" width="30.0" height="30.0" rx="0" class="s-mu f-ac" stroke-width="1"/>
<rect x="280.0" y="36.0" width="30.0" height="30.0" rx="0" class="s-mu f-ac" stroke-width="1"/>
<rect x="310.0" y="36.0" width="30.0" height="30.0" rx="0" class="s-mu f-ac" stroke-width="1"/>
<rect x="340.0" y="36.0" width="30.0" height="30.0" rx="0" class="s-mu f-ac" stroke-width="1"/>
<rect x="370.0" y="36.0" width="30.0" height="30.0" rx="0" class="s-mu f-sf" stroke-width="1"/>
<rect x="400.0" y="36.0" width="30.0" height="30.0" rx="0" class="s-mu f-ac" stroke-width="1"/>
<rect x="250.0" y="66.0" width="30.0" height="30.0" rx="0" class="s-mu f-sf" stroke-width="1"/>
<rect x="280.0" y="66.0" width="30.0" height="30.0" rx="0" class="s-mu f-ac" stroke-width="1"/>
<rect x="310.0" y="66.0" width="30.0" height="30.0" rx="0" class="s-mu f-ac" stroke-width="1"/>
<rect x="340.0" y="66.0" width="30.0" height="30.0" rx="0" class="s-mu f-sf" stroke-width="1"/>
<rect x="370.0" y="66.0" width="30.0" height="30.0" rx="0" class="s-mu f-ac" stroke-width="1"/>
<rect x="400.0" y="66.0" width="30.0" height="30.0" rx="0" class="s-mu f-ac" stroke-width="1"/>
<rect x="250.0" y="96.0" width="30.0" height="30.0" rx="0" class="s-mu f-ac" stroke-width="1"/>
<rect x="280.0" y="96.0" width="30.0" height="30.0" rx="0" class="s-mu f-sf" stroke-width="1"/>
<rect x="310.0" y="96.0" width="30.0" height="30.0" rx="0" class="s-mu f-sf" stroke-width="1"/>
<rect x="340.0" y="96.0" width="30.0" height="30.0" rx="0" class="s-mu f-sf" stroke-width="1"/>
<rect x="370.0" y="96.0" width="30.0" height="30.0" rx="0" class="s-mu f-sf" stroke-width="1"/>
<rect x="400.0" y="96.0" width="30.0" height="30.0" rx="0" class="s-mu f-sf" stroke-width="1"/>
<rect x="250.0" y="126.0" width="30.0" height="30.0" rx="0" class="s-mu f-sf" stroke-width="1"/>
<rect x="280.0" y="126.0" width="30.0" height="30.0" rx="0" class="s-mu f-sf" stroke-width="1"/>
<rect x="310.0" y="126.0" width="30.0" height="30.0" rx="0" class="s-mu f-sf" stroke-width="1"/>
<rect x="340.0" y="126.0" width="30.0" height="30.0" rx="0" class="s-mu f-ac" stroke-width="1"/>
<rect x="370.0" y="126.0" width="30.0" height="30.0" rx="0" class="s-mu f-sf" stroke-width="1"/>
<rect x="400.0" y="126.0" width="30.0" height="30.0" rx="0" class="s-mu f-sf" stroke-width="1"/>
<rect x="250.0" y="156.0" width="30.0" height="30.0" rx="0" class="s-mu f-sf" stroke-width="1"/>
<rect x="280.0" y="156.0" width="30.0" height="30.0" rx="0" class="s-mu f-ac" stroke-width="1"/>
<rect x="310.0" y="156.0" width="30.0" height="30.0" rx="0" class="s-mu f-sf" stroke-width="1"/>
<rect x="340.0" y="156.0" width="30.0" height="30.0" rx="0" class="s-mu f-ac" stroke-width="1"/>
<rect x="370.0" y="156.0" width="30.0" height="30.0" rx="0" class="s-mu f-ac" stroke-width="1"/>
<rect x="400.0" y="156.0" width="30.0" height="30.0" rx="0" class="s-mu f-sf" stroke-width="1"/>
<rect x="250.0" y="186.0" width="30.0" height="30.0" rx="0" class="s-mu f-ac" stroke-width="1"/>
<rect x="280.0" y="186.0" width="30.0" height="30.0" rx="0" class="s-mu f-ac" stroke-width="1"/>
<rect x="310.0" y="186.0" width="30.0" height="30.0" rx="0" class="s-mu f-ac" stroke-width="1"/>
<rect x="340.0" y="186.0" width="30.0" height="30.0" rx="0" class="s-mu f-sf" stroke-width="1"/>
<rect x="370.0" y="186.0" width="30.0" height="30.0" rx="0" class="s-mu f-sf" stroke-width="1"/>
<rect x="400.0" y="186.0" width="30.0" height="30.0" rx="0" class="s-mu f-ac" stroke-width="1"/>
<text x="340.0" y="24.0" class="f-fg" font-size="13" text-anchor="middle" font-weight="600">무작위</text>
<text x="340.0" y="242.0" class="f-bd" font-size="14" text-anchor="middle" font-weight="600">I = −0.03</text>
<rect x="470.0" y="36.0" width="30.0" height="30.0" rx="0" class="s-mu f-sf" stroke-width="1"/>
<rect x="500.0" y="36.0" width="30.0" height="30.0" rx="0" class="s-mu f-ac" stroke-width="1"/>
<rect x="530.0" y="36.0" width="30.0" height="30.0" rx="0" class="s-mu f-sf" stroke-width="1"/>
<rect x="560.0" y="36.0" width="30.0" height="30.0" rx="0" class="s-mu f-ac" stroke-width="1"/>
<rect x="590.0" y="36.0" width="30.0" height="30.0" rx="0" class="s-mu f-sf" stroke-width="1"/>
<rect x="620.0" y="36.0" width="30.0" height="30.0" rx="0" class="s-mu f-ac" stroke-width="1"/>
<rect x="470.0" y="66.0" width="30.0" height="30.0" rx="0" class="s-mu f-ac" stroke-width="1"/>
<rect x="500.0" y="66.0" width="30.0" height="30.0" rx="0" class="s-mu f-sf" stroke-width="1"/>
<rect x="530.0" y="66.0" width="30.0" height="30.0" rx="0" class="s-mu f-ac" stroke-width="1"/>
<rect x="560.0" y="66.0" width="30.0" height="30.0" rx="0" class="s-mu f-sf" stroke-width="1"/>
<rect x="590.0" y="66.0" width="30.0" height="30.0" rx="0" class="s-mu f-ac" stroke-width="1"/>
<rect x="620.0" y="66.0" width="30.0" height="30.0" rx="0" class="s-mu f-sf" stroke-width="1"/>
<rect x="470.0" y="96.0" width="30.0" height="30.0" rx="0" class="s-mu f-sf" stroke-width="1"/>
<rect x="500.0" y="96.0" width="30.0" height="30.0" rx="0" class="s-mu f-ac" stroke-width="1"/>
<rect x="530.0" y="96.0" width="30.0" height="30.0" rx="0" class="s-mu f-sf" stroke-width="1"/>
<rect x="560.0" y="96.0" width="30.0" height="30.0" rx="0" class="s-mu f-ac" stroke-width="1"/>
<rect x="590.0" y="96.0" width="30.0" height="30.0" rx="0" class="s-mu f-sf" stroke-width="1"/>
<rect x="620.0" y="96.0" width="30.0" height="30.0" rx="0" class="s-mu f-ac" stroke-width="1"/>
<rect x="470.0" y="126.0" width="30.0" height="30.0" rx="0" class="s-mu f-ac" stroke-width="1"/>
<rect x="500.0" y="126.0" width="30.0" height="30.0" rx="0" class="s-mu f-sf" stroke-width="1"/>
<rect x="530.0" y="126.0" width="30.0" height="30.0" rx="0" class="s-mu f-ac" stroke-width="1"/>
<rect x="560.0" y="126.0" width="30.0" height="30.0" rx="0" class="s-mu f-sf" stroke-width="1"/>
<rect x="590.0" y="126.0" width="30.0" height="30.0" rx="0" class="s-mu f-ac" stroke-width="1"/>
<rect x="620.0" y="126.0" width="30.0" height="30.0" rx="0" class="s-mu f-sf" stroke-width="1"/>
<rect x="470.0" y="156.0" width="30.0" height="30.0" rx="0" class="s-mu f-sf" stroke-width="1"/>
<rect x="500.0" y="156.0" width="30.0" height="30.0" rx="0" class="s-mu f-ac" stroke-width="1"/>
<rect x="530.0" y="156.0" width="30.0" height="30.0" rx="0" class="s-mu f-sf" stroke-width="1"/>
<rect x="560.0" y="156.0" width="30.0" height="30.0" rx="0" class="s-mu f-ac" stroke-width="1"/>
<rect x="590.0" y="156.0" width="30.0" height="30.0" rx="0" class="s-mu f-sf" stroke-width="1"/>
<rect x="620.0" y="156.0" width="30.0" height="30.0" rx="0" class="s-mu f-ac" stroke-width="1"/>
<rect x="470.0" y="186.0" width="30.0" height="30.0" rx="0" class="s-mu f-ac" stroke-width="1"/>
<rect x="500.0" y="186.0" width="30.0" height="30.0" rx="0" class="s-mu f-sf" stroke-width="1"/>
<rect x="530.0" y="186.0" width="30.0" height="30.0" rx="0" class="s-mu f-ac" stroke-width="1"/>
<rect x="560.0" y="186.0" width="30.0" height="30.0" rx="0" class="s-mu f-sf" stroke-width="1"/>
<rect x="590.0" y="186.0" width="30.0" height="30.0" rx="0" class="s-mu f-ac" stroke-width="1"/>
<rect x="620.0" y="186.0" width="30.0" height="30.0" rx="0" class="s-mu f-sf" stroke-width="1"/>
<text x="560.0" y="24.0" class="f-fg" font-size="13" text-anchor="middle" font-weight="600">음의 자기상관</text>
<text x="560.0" y="242.0" class="f-bd" font-size="14" text-anchor="middle" font-weight="600">I = −1.00</text>
</svg>
