<svg xmlns="http://www.w3.org/2000/svg" class="vdfig" viewBox="0 0 720 400" role="img" aria-label="증강 여섯 가지의 시험, 90° 돌린 시험, 연무·계절 시험 정확도. 막대는 best 모델, 세로 눈금은 last 모델">
<style>
.vdfig{font-family:system-ui,-apple-system,'Apple SD Gothic Neo','Malgun Gothic','Noto Sans KR',sans-serif}
.vdfig .s-fg{stroke:#1c2330}.vdfig .s-mu{stroke:#8a93a3}.vdfig .s-ac{stroke:#2563eb}.vdfig .s-bd{stroke:#c2410c}.vdfig .s-ok{stroke:#15803d}
.vdfig .f-fg{fill:#1c2330}.vdfig .f-mu{fill:#5a6475}.vdfig .f-ac{fill:#2563eb}.vdfig .f-acs{fill:#e6eefe}.vdfig .f-bd{fill:#c2410c}
.vdfig .f-bds{fill:#fdeee6}.vdfig .f-ok{fill:#15803d}.vdfig .f-sf{fill:#f0f2f5}.vdfig .f-bg{fill:#ffffff}
@media (prefers-color-scheme:dark){
.vdfig .s-fg{stroke:#e6e9ef}.vdfig .s-mu{stroke:#737c8c}.vdfig .s-ac{stroke:#6d9bff}.vdfig .s-bd{stroke:#fb8b5b}.vdfig .s-ok{stroke:#4ade80}
.vdfig .f-fg{fill:#e6e9ef}.vdfig .f-mu{fill:#a7afbd}.vdfig .f-ac{fill:#6d9bff}.vdfig .f-acs{fill:#1f2b45}.vdfig .f-bd{fill:#fb8b5b}
.vdfig .f-bds{fill:#3a2218}.vdfig .f-ok{fill:#4ade80}.vdfig .f-sf{fill:#222733}.vdfig .f-bg{fill:#1a1e26}}
</style>
<rect x="150.0" y="14.0" width="14.0" height="10.0" rx="0" class="s-ac f-ac" stroke-width="1.0"/>
<text x="170.0" y="23.0" class="f-fg" font-size="12" text-anchor="start">시험</text>
<rect x="210.0" y="14.0" width="14.0" height="10.0" rx="0" class="s-mu f-mu" stroke-width="1.0"/>
<text x="230.0" y="23.0" class="f-fg" font-size="12" text-anchor="start">90° 돌린 시험</text>
<rect x="361.0" y="14.0" width="14.0" height="10.0" rx="0" class="s-bd f-bd" stroke-width="1.0"/>
<text x="381.0" y="23.0" class="f-fg" font-size="12" text-anchor="start">연무·계절 시험</text>
<line x1="505.0" y1="11.0" x2="505.0" y2="27.0" class="s-fg" stroke-width="2.2"/>
<text x="513.0" y="23.0" class="f-fg" font-size="12" text-anchor="start">last</text>
<text x="138.0" y="70.0" class="f-fg" font-size="13" text-anchor="end">없음</text>
<rect x="150.0" y="48.0" width="480.5" height="10.0" rx="0" class="s-ac f-ac" stroke-width="0.8"/>
<line x1="631.7" y1="46.0" x2="631.7" y2="60.0" class="s-fg" stroke-width="2.2"/>
<rect x="150.0" y="60.0" width="483.9" height="10.0" rx="0" class="s-mu f-mu" stroke-width="0.8"/>
<line x1="628.9" y1="58.0" x2="628.9" y2="72.0" class="s-fg" stroke-width="2.2"/>
<rect x="150.0" y="72.0" width="350.0" height="10.0" rx="0" class="s-bd f-bd" stroke-width="0.8"/>
<line x1="500.0" y1="70.0" x2="500.0" y2="84.0" class="s-fg" stroke-width="2.2"/>
<text x="507.0" y="81.0" class="f-bd" font-size="11" text-anchor="start" font-weight="600">0.700</text>
<text x="138.0" y="120.0" class="f-fg" font-size="13" text-anchor="end">기하</text>
<rect x="150.0" y="98.0" width="476.7" height="10.0" rx="0" class="s-ac f-ac" stroke-width="0.8"/>
<line x1="626.7" y1="96.0" x2="626.7" y2="110.0" class="s-fg" stroke-width="2.2"/>
<rect x="150.0" y="110.0" width="478.9" height="10.0" rx="0" class="s-mu f-mu" stroke-width="0.8"/>
<line x1="628.9" y1="108.0" x2="628.9" y2="122.0" class="s-fg" stroke-width="2.2"/>
<rect x="150.0" y="122.0" width="375.0" height="10.0" rx="0" class="s-bd f-bd" stroke-width="0.8"/>
<line x1="525.0" y1="120.0" x2="525.0" y2="134.0" class="s-fg" stroke-width="2.2"/>
<text x="532.0" y="131.0" class="f-bd" font-size="11" text-anchor="start" font-weight="600">0.750</text>
<text x="138.0" y="170.0" class="f-fg" font-size="13" text-anchor="end">광학</text>
<rect x="150.0" y="148.0" width="477.8" height="10.0" rx="0" class="s-ac f-ac" stroke-width="0.8"/>
<line x1="625.5" y1="146.0" x2="625.5" y2="160.0" class="s-fg" stroke-width="2.2"/>
<rect x="150.0" y="160.0" width="480.0" height="10.0" rx="0" class="s-mu f-mu" stroke-width="0.8"/>
<line x1="626.7" y1="158.0" x2="626.7" y2="172.0" class="s-fg" stroke-width="2.2"/>
<rect x="150.0" y="172.0" width="468.3" height="10.0" rx="0" class="s-bd f-bd" stroke-width="0.8"/>
<line x1="623.3" y1="170.0" x2="623.3" y2="184.0" class="s-fg" stroke-width="2.2"/>
<text x="630.3" y="181.0" class="f-bd" font-size="11" text-anchor="start" font-weight="600">0.937</text>
<text x="138.0" y="220.0" class="f-fg" font-size="13" text-anchor="end">기하+광학</text>
<rect x="150.0" y="198.0" width="475.0" height="10.0" rx="0" class="s-ac f-ac" stroke-width="0.8"/>
<line x1="631.7" y1="196.0" x2="631.7" y2="210.0" class="s-fg" stroke-width="2.2"/>
<rect x="150.0" y="210.0" width="475.0" height="10.0" rx="0" class="s-mu f-mu" stroke-width="0.8"/>
<line x1="629.5" y1="208.0" x2="629.5" y2="222.0" class="s-fg" stroke-width="2.2"/>
<rect x="150.0" y="222.0" width="437.8" height="10.0" rx="0" class="s-bd f-bd" stroke-width="0.8"/>
<line x1="627.8" y1="220.0" x2="627.8" y2="234.0" class="s-fg" stroke-width="2.2"/>
<text x="634.8" y="231.0" class="f-bd" font-size="11" text-anchor="start" font-weight="600">0.876</text>
<text x="138.0" y="270.0" class="f-fg" font-size="13" text-anchor="end">밴드 섞기</text>
<rect x="150.0" y="248.0" width="477.8" height="10.0" rx="0" class="s-ac f-ac" stroke-width="0.8"/>
<line x1="627.8" y1="246.0" x2="627.8" y2="260.0" class="s-fg" stroke-width="2.2"/>
<rect x="150.0" y="260.0" width="478.9" height="10.0" rx="0" class="s-mu f-mu" stroke-width="0.8"/>
<line x1="628.9" y1="258.0" x2="628.9" y2="272.0" class="s-fg" stroke-width="2.2"/>
<rect x="150.0" y="272.0" width="352.2" height="10.0" rx="0" class="s-bd f-bd" stroke-width="0.8"/>
<line x1="502.2" y1="270.0" x2="502.2" y2="284.0" class="s-fg" stroke-width="2.2"/>
<text x="509.2" y="281.0" class="f-bd" font-size="11" text-anchor="start" font-weight="600">0.704</text>
<text x="138.0" y="320.0" class="f-fg" font-size="13" text-anchor="end">기하+믹스업</text>
<rect x="150.0" y="298.0" width="476.1" height="10.0" rx="0" class="s-ac f-ac" stroke-width="0.8"/>
<line x1="598.4" y1="296.0" x2="598.4" y2="310.0" class="s-fg" stroke-width="2.2"/>
<rect x="150.0" y="310.0" width="477.8" height="10.0" rx="0" class="s-mu f-mu" stroke-width="0.8"/>
<line x1="600.0" y1="308.0" x2="600.0" y2="322.0" class="s-fg" stroke-width="2.2"/>
<rect x="150.0" y="322.0" width="357.8" height="10.0" rx="0" class="s-bd f-bd" stroke-width="0.8"/>
<line x1="533.9" y1="320.0" x2="533.9" y2="334.0" class="s-fg" stroke-width="2.2"/>
<text x="540.9" y="331.0" class="f-bd" font-size="11" text-anchor="start" font-weight="600">0.716</text>
<line x1="150.0" y1="340.0" x2="650.0" y2="340.0" class="s-mu" stroke-width="1.2"/>
<line x1="150.0" y1="42.0" x2="150.0" y2="340.0" class="s-mu" stroke-width="1.2"/>
<line x1="150.0" y1="340.0" x2="150.0" y2="344.0" class="s-mu" stroke-width="1.2"/>
<text x="150.0" y="357.0" class="f-mu" font-size="11" text-anchor="middle">0</text>
<line x1="250.0" y1="340.0" x2="250.0" y2="344.0" class="s-mu" stroke-width="1.2"/>
<text x="250.0" y="357.0" class="f-mu" font-size="11" text-anchor="middle">0.2</text>
<line x1="350.0" y1="340.0" x2="350.0" y2="344.0" class="s-mu" stroke-width="1.2"/>
<text x="350.0" y="357.0" class="f-mu" font-size="11" text-anchor="middle">0.4</text>
<line x1="450.0" y1="340.0" x2="450.0" y2="344.0" class="s-mu" stroke-width="1.2"/>
<text x="450.0" y="357.0" class="f-mu" font-size="11" text-anchor="middle">0.6</text>
<line x1="550.0" y1="340.0" x2="550.0" y2="344.0" class="s-mu" stroke-width="1.2"/>
<text x="550.0" y="357.0" class="f-mu" font-size="11" text-anchor="middle">0.8</text>
<line x1="650.0" y1="340.0" x2="650.0" y2="344.0" class="s-mu" stroke-width="1.2"/>
<text x="650.0" y="357.0" class="f-mu" font-size="11" text-anchor="middle">1</text>
<text x="400.0" y="378.0" class="f-mu" font-size="12" text-anchor="middle">정확도</text>
</svg>
