<svg xmlns="http://www.w3.org/2000/svg" class="vdfig" viewBox="0 0 700 300" role="img" aria-label="융합 모델과 모달리티 드롭아웃 모델의 맑음·구름 조건 섀플리 값. 드롭아웃 모델의 구름 조건에서 광학의 섀플리 값이 음수">
<style>
.vdfig{font-family:system-ui,-apple-system,'Apple SD Gothic Neo','Malgun Gothic','Noto Sans KR',sans-serif}
.vdfig .s-fg{stroke:#1c2330}.vdfig .s-mu{stroke:#8a93a3}.vdfig .s-ac{stroke:#2563eb}.vdfig .s-bd{stroke:#c2410c}.vdfig .s-ok{stroke:#15803d}
.vdfig .f-fg{fill:#1c2330}.vdfig .f-mu{fill:#5a6475}.vdfig .f-ac{fill:#2563eb}.vdfig .f-acs{fill:#e6eefe}.vdfig .f-bd{fill:#c2410c}
.vdfig .f-bds{fill:#fdeee6}.vdfig .f-ok{fill:#15803d}.vdfig .f-sf{fill:#f0f2f5}.vdfig .f-bg{fill:#ffffff}
@media (prefers-color-scheme:dark){
.vdfig .s-fg{stroke:#e6e9ef}.vdfig .s-mu{stroke:#737c8c}.vdfig .s-ac{stroke:#6d9bff}.vdfig .s-bd{stroke:#fb8b5b}.vdfig .s-ok{stroke:#4ade80}
.vdfig .f-fg{fill:#e6e9ef}.vdfig .f-mu{fill:#a7afbd}.vdfig .f-ac{fill:#6d9bff}.vdfig .f-acs{fill:#1f2b45}.vdfig .f-bd{fill:#fb8b5b}
.vdfig .f-bds{fill:#3a2218}.vdfig .f-ok{fill:#4ade80}.vdfig .f-sf{fill:#222733}.vdfig .f-bg{fill:#1a1e26}}
</style>
<rect x="310.0" y="44.0" width="322.4" height="15.0" rx="0" class="s-mu f-mu" stroke-width="1.0"/>
<text x="638.4" y="56.0" class="f-fg" font-size="11" text-anchor="start">+0.586</text>
<rect x="310.0" y="62.0" width="1.0" height="15.0" rx="0" class="s-ok f-ok" stroke-width="1.0"/>
<text x="316.1" y="74.0" class="f-fg" font-size="11" text-anchor="start">+0.0002</text>
<text x="130.0" y="65.5" class="f-fg" font-size="12" text-anchor="end">융합 · 맑음</text>
<rect x="310.0" y="96.0" width="85.7" height="15.0" rx="0" class="s-mu f-mu" stroke-width="1.0"/>
<text x="401.7" y="108.0" class="f-fg" font-size="11" text-anchor="start">+0.156</text>
<rect x="310.0" y="114.0" width="1.0" height="15.0" rx="0" class="s-ok f-ok" stroke-width="1.0"/>
<text x="316.8" y="126.0" class="f-fg" font-size="11" text-anchor="start">+0.0014</text>
<text x="130.0" y="117.5" class="f-fg" font-size="12" text-anchor="end">융합 · 구름</text>
<rect x="310.0" y="148.0" width="189.6" height="15.0" rx="0" class="s-mu f-mu" stroke-width="1.0"/>
<text x="505.6" y="160.0" class="f-fg" font-size="11" text-anchor="start">+0.345</text>
<rect x="310.0" y="166.0" width="131.1" height="15.0" rx="0" class="s-ok f-ok" stroke-width="1.0"/>
<text x="447.1" y="178.0" class="f-fg" font-size="11" text-anchor="start">+0.238</text>
<text x="130.0" y="169.5" class="f-fg" font-size="12" text-anchor="end">드롭아웃 · 맑음</text>
<rect x="251.7" y="200.0" width="58.3" height="15.0" rx="0" class="s-mu f-mu" stroke-width="1.0"/>
<text x="245.7" y="212.0" class="f-bd" font-size="11" text-anchor="end" font-weight="600">-0.106</text>
<rect x="310.0" y="218.0" width="132.2" height="15.0" rx="0" class="s-ok f-ok" stroke-width="1.0"/>
<text x="448.2" y="230.0" class="f-fg" font-size="11" text-anchor="start">+0.240</text>
<text x="130.0" y="221.5" class="f-fg" font-size="12" text-anchor="end">드롭아웃 · 구름</text>
<line x1="310.0" y1="34.0" x2="310.0" y2="244.0" class="s-fg" stroke-width="1.2"/>
<line x1="140.0" y1="244.0" x2="640.0" y2="244.0" class="s-mu" stroke-width="1.2"/>
<line x1="200.0" y1="244.0" x2="200.0" y2="248.0" class="s-mu" stroke-width="1.2"/>
<text x="200.0" y="261.0" class="f-mu" font-size="11" text-anchor="middle">-0.2</text>
<line x1="310.0" y1="244.0" x2="310.0" y2="248.0" class="s-mu" stroke-width="1.2"/>
<text x="310.0" y="261.0" class="f-mu" font-size="11" text-anchor="middle">0.0</text>
<line x1="420.0" y1="244.0" x2="420.0" y2="248.0" class="s-mu" stroke-width="1.2"/>
<text x="420.0" y="261.0" class="f-mu" font-size="11" text-anchor="middle">0.2</text>
<line x1="530.0" y1="244.0" x2="530.0" y2="248.0" class="s-mu" stroke-width="1.2"/>
<text x="530.0" y="261.0" class="f-mu" font-size="11" text-anchor="middle">0.4</text>
<line x1="640.0" y1="244.0" x2="640.0" y2="248.0" class="s-mu" stroke-width="1.2"/>
<text x="640.0" y="261.0" class="f-mu" font-size="11" text-anchor="middle">0.6</text>
<text x="420.0" y="280.0" class="f-mu" font-size="12" text-anchor="middle">섀플리 값 (정확도 단위)</text>
<rect x="200.0" y="12.0" width="14.0" height="11.0" rx="0" class="s-mu f-mu" stroke-width="1.0"/>
<text x="220.0" y="22.0" class="f-mu" font-size="11" text-anchor="start">광학 φ_EO</text>
<rect x="320.0" y="12.0" width="14.0" height="11.0" rx="0" class="s-ok f-ok" stroke-width="1.0"/>
<text x="340.0" y="22.0" class="f-mu" font-size="11" text-anchor="start">SAR φ_SAR</text>
</svg>
